<svg width="376" height="339" xmlns="http://www.w3.org/2000/svg" xmlns:xlink="http://www.w3.org/1999/xlink" xml:space="preserve" overflow="hidden"><g transform="translate(-105 -110)"><g><path d="M359.221 302.104C356.801 308.883 354.139 316.812 351.236 325.891 348.332 334.969 345.609 344.29 343.069 353.853 340.528 363.416 338.411 372.736 336.717 381.815 335.023 390.894 334.176 399.064 334.176 406.327 334.176 414.317 335.386 420.006 337.806 423.395 340.225 426.785 343.25 428.479 346.88 428.479 350.994 428.479 355.168 426.603 359.402 422.851 363.637 419.098 367.448 413.893 370.836 407.235 374.224 400.578 376.946 392.77 379.003 383.812 381.059 374.855 382.088 365.292 382.088 355.124 382.088 348.587 381.664 342.595 380.817 337.148 379.97 331.701 378.942 326.556 377.732 321.714 373.619 319.051 370.049 316.025 367.025 312.636 364 309.246 361.399 305.736 359.221 302.104ZM447.059 124.889C445.849 124.889 444.458 125.313 442.885 126.16 441.312 127.007 439.557 128.642 437.622 131.062 435.686 133.484 433.387 136.933 430.725 141.412 428.063 145.891 424.918 151.641 421.288 158.662 412.819 175.366 404.41 193.039 396.062 211.681 387.714 230.323 379.668 249.085 371.925 267.969 383.782 260.464 394.852 251.324 405.136 240.551 415.42 229.778 424.313 218.46 431.814 206.597 439.315 194.734 445.244 182.992 449.6 171.372 453.955 159.751 456.133 149.341 456.133 140.141 456.133 134.573 455.286 130.639 453.592 128.339 451.898 126.039 449.72 124.889 447.059 124.889ZM447.422 110C455.165 110 461.335 112.481 465.933 117.444 470.531 122.408 472.829 129.973 472.829 140.141 472.829 152.004 470.107 164.896 464.663 178.816 459.218 192.737 451.838 206.294 442.522 219.489 433.206 232.683 422.437 245.03 410.218 256.53 397.998 268.029 384.991 277.411 371.199 284.673 374.828 287.579 378.216 291.452 381.362 296.294 384.508 301.136 387.29 306.341 389.71 311.909 394.55 315.057 400.115 316.63 406.406 316.63 415.36 316.63 424.978 313.18 435.262 306.281 445.546 299.381 455.649 288.426 465.57 273.416 466.054 272.69 466.659 271.963 467.385 271.237 467.869 270.753 468.474 270.329 469.2 269.966 469.926 269.603 470.652 269.421 471.378 269.421 476.459 269.905 479 272.447 479 277.047 479 278.258 478.516 279.831 477.548 281.768 466.659 297.989 455.407 310.215 443.792 318.446 432.177 326.677 419.594 330.793 406.043 330.793 402.656 330.793 399.147 330.43 395.517 329.704 398.179 339.145 399.51 347.74 399.51 355.487 399.51 367.35 397.998 378.668 394.973 389.441 391.948 400.214 387.895 409.656 382.814 417.767 377.732 425.877 371.925 432.292 365.391 437.013 358.858 441.734 352.082 444.095 345.065 444.095 336.354 444.095 329.276 441.008 323.832 434.835 318.387 428.661 315.665 419.159 315.665 406.327 315.665 394.707 317.964 379.818 322.561 361.661 326.009 348.042 330.138 333.539 334.947 318.151L336.937 311.954 335.862 312.931C329.079 318.696 321.513 323.984 313.165 328.796 302.034 335.211 289.512 340.295 275.598 344.048 261.684 347.8 246.379 349.677 229.683 349.677 221.456 349.677 214.559 348.95 208.994 347.498 203.428 346.045 198.468 343.987 194.112 341.324 185.885 335.998 181.771 330.914 181.771 326.072 181.771 324.135 182.497 322.441 183.949 320.988 185.401 319.535 187.095 318.809 189.03 318.809 190.966 318.809 192.358 319.172 193.205 319.899 194.051 320.625 195.443 321.957 197.379 323.893 200.524 327.283 204.275 329.946 208.631 331.882 212.986 333.819 217.584 334.788 222.423 334.788 231.135 334.788 239.543 331.882 247.65 326.072 255.756 320.262 263.015 312.636 269.428 303.194 275.84 293.752 280.982 283.221 284.854 271.6 288.725 259.98 290.661 248.359 290.661 236.738 290.661 228.507 288.786 222.152 285.035 217.673 281.285 213.194 276.022 210.955 269.246 210.955 264.407 210.955 258.962 212.286 252.913 214.949 246.863 217.612 240.693 221.123 234.401 225.481 228.11 229.838 222 234.68 216.072 240.006 210.143 245.333 205.001 250.659 200.645 255.985 196.532 261.069 192.6 267.061 188.849 273.961 185.098 280.86 181.59 288.002 178.323 295.386 175.056 302.77 172.031 310.215 169.249 317.72 166.466 325.225 163.865 332.246 161.445 338.782L125.511 437.558C124.543 440.221 123.333 442.46 121.882 444.276 120.43 446.092 118.252 447 115.348 447 113.412 447 111.537 446.274 109.722 444.821 107.907 443.368 107 441.432 107 439.011 107 436.59 107.605 433.685 108.815 430.295 114.864 413.348 121.761 394.586 129.504 374.007 137.247 353.429 145.051 332.851 152.915 312.273 160.779 291.694 168.402 272.024 175.782 253.261 183.163 234.499 189.635 218.581 195.201 205.508 197.863 199.213 201.734 196.066 206.816 196.066 212.623 196.066 215.527 198.729 215.527 204.055 215.527 208.413 212.623 215.676 206.816 225.844L201.371 238.191C212.502 225.844 224.117 215.736 236.216 207.868 248.315 200 259.446 196.066 269.609 196.066 282.192 196.066 292.113 199.697 299.372 206.96 306.632 214.223 310.261 224.391 310.261 237.464 310.261 246.18 309.173 255.138 306.995 264.337 304.817 273.537 301.671 282.374 297.558 290.847 293.444 299.32 288.483 307.31 282.676 314.815 276.868 322.32 270.335 328.614 263.076 333.698 273.965 331.519 283.946 328.312 293.02 324.075 302.095 319.838 310.261 315.057 317.521 309.731 324.78 304.404 331.192 298.594 336.758 292.3 339.541 289.152 342.142 286.005 344.562 282.858L349.44 275.999 354.502 262.703C359.826 249.267 365.27 236.072 370.836 223.12 376.401 210.168 382.088 197.579 387.895 185.353 393.703 173.127 399.389 161.688 404.955 151.036 412.94 135.299 420.502 124.526 427.64 118.716 434.778 112.905 441.372 110 447.422 110Z" fill="#AEAEAE" fill-rule="evenodd" fill-opacity="1"/></g></g></svg>