<svg width="2815" height="921" xmlns="http://www.w3.org/2000/svg" xmlns:xlink="http://www.w3.org/1999/xlink" xml:space="preserve" overflow="hidden"><g transform="translate(-22 -701)"><g><path d="M2420.36 1258.76C2427.11 1258.76 2432.98 1261.26 2437.96 1266.25 2442.95 1271.25 2445.45 1277.12 2445.45 1283.88 2445.45 1290.64 2442.95 1296.29 2437.96 1300.85 2432.98 1305.4 2427.11 1307.68 2420.36 1307.68 2413.61 1307.68 2407.75 1305.4 2402.76 1300.85 2397.77 1296.29 2395.28 1290.64 2395.28 1283.88 2395.28 1277.12 2397.77 1271.25 2402.76 1266.25 2407.75 1261.26 2413.61 1258.76 2420.36 1258.76ZM2729.06 1104.97C2716.16 1104.97 2705.3 1107.61 2696.5 1112.9 2687.7 1118.19 2680.66 1125.31 2675.38 1134.27 2670.1 1143.23 2666.36 1153.44 2664.16 1164.9 2661.96 1176.36 2660.86 1188.25 2660.86 1200.59 2660.86 1212.93 2661.96 1224.83 2664.16 1236.29 2666.36 1247.75 2670.1 1257.95 2675.38 1266.92 2680.66 1275.88 2687.7 1283 2696.5 1288.29 2705.3 1293.58 2716.16 1296.22 2729.06 1296.22 2741.97 1296.22 2752.83 1293.58 2761.63 1288.29 2770.43 1283 2777.47 1275.88 2782.75 1266.92 2788.03 1257.95 2791.77 1247.75 2793.97 1236.29 2796.17 1224.83 2797.27 1212.93 2797.27 1200.59 2797.27 1188.25 2796.17 1176.36 2793.97 1164.9 2791.77 1153.44 2788.03 1143.23 2782.75 1134.27 2777.47 1125.31 2770.43 1118.19 2761.63 1112.9 2752.83 1107.61 2741.97 1104.97 2729.06 1104.97ZM2113.67 1104.97C2100.76 1104.97 2089.9 1107.61 2081.1 1112.9 2072.3 1118.19 2065.26 1125.31 2059.98 1134.27 2054.7 1143.23 2050.96 1153.44 2048.76 1164.9 2046.56 1176.36 2045.46 1188.25 2045.46 1200.59 2045.46 1212.93 2046.56 1224.83 2048.76 1236.29 2050.96 1247.75 2054.7 1257.95 2059.98 1266.92 2065.26 1275.88 2072.3 1283 2081.1 1288.29 2089.9 1293.58 2100.76 1296.22 2113.67 1296.22 2126.57 1296.22 2137.43 1293.58 2146.23 1288.29 2155.03 1283 2162.07 1275.88 2167.35 1266.92 2172.63 1257.95 2176.37 1247.75 2178.57 1236.29 2180.78 1224.83 2181.88 1212.93 2181.88 1200.59 2181.88 1188.25 2180.78 1176.36 2178.57 1164.9 2176.37 1153.44 2172.63 1143.23 2167.35 1134.27 2162.07 1125.31 2155.03 1118.19 2146.23 1112.9 2137.43 1107.61 2126.57 1104.97 2113.67 1104.97ZM1474.2 1104.97C1461.29 1104.97 1450.44 1107.61 1441.64 1112.9 1432.83 1118.19 1425.79 1125.31 1420.51 1134.27 1415.23 1143.23 1411.49 1153.44 1409.29 1164.9 1407.09 1176.36 1405.99 1188.25 1405.99 1200.59 1405.99 1212.93 1407.09 1224.83 1409.29 1236.29 1411.49 1247.75 1415.23 1257.95 1420.51 1266.92 1425.79 1275.88 1432.83 1283 1441.64 1288.29 1450.44 1293.58 1461.29 1296.22 1474.2 1296.22 1487.11 1296.22 1497.96 1293.58 1506.77 1288.29 1515.57 1283 1522.61 1275.88 1527.89 1266.92 1533.17 1257.95 1536.91 1247.75 1539.11 1236.29 1541.31 1224.83 1542.41 1212.93 1542.41 1200.59 1542.41 1188.25 1541.31 1176.36 1539.11 1164.9 1536.91 1153.44 1533.17 1143.23 1527.89 1134.27 1522.61 1125.31 1515.57 1118.19 1506.77 1112.9 1497.96 1107.61 1487.11 1104.97 1474.2 1104.97ZM2524.33 1095.27C2532.54 1096.74 2539.14 1097.47 2544.13 1097.47 2549.12 1097.47 2555.72 1096.74 2563.93 1095.27 2562.46 1107.9 2561.51 1121.49 2561.07 1136.03 2560.63 1150.58 2560.41 1164.46 2560.41 1177.68L2560.41 1223.51C2560.41 1236.73 2560.63 1250.61 2561.07 1265.15 2561.51 1279.69 2562.46 1292.84 2563.93 1304.59 2557.18 1304.01 2550.58 1303.71 2544.13 1303.71 2537.67 1303.71 2531.07 1304.01 2524.33 1304.59 2525.79 1292.84 2526.75 1279.69 2527.19 1265.15 2527.63 1250.61 2527.85 1236.73 2527.85 1223.51L2527.85 1177.68C2527.85 1164.46 2527.63 1150.58 2527.19 1136.03 2526.75 1121.49 2525.79 1107.9 2524.33 1095.27ZM2729.06 1090.86C2741.97 1090.86 2754.74 1092.85 2767.35 1096.81 2779.97 1100.78 2791.41 1107.1 2801.68 1115.76 2811.94 1124.43 2820.23 1135.74 2826.54 1149.7 2832.85 1163.65 2836 1180.62 2836 1200.59 2836 1220.57 2832.85 1237.54 2826.54 1251.49 2820.23 1265.45 2811.94 1276.76 2801.68 1285.42 2791.41 1294.09 2779.97 1300.19 2767.35 1303.71 2754.74 1307.24 2741.97 1309 2729.06 1309 2716.45 1309 2703.76 1307.24 2691 1303.71 2678.24 1300.19 2666.72 1294.09 2656.45 1285.42 2646.19 1276.76 2637.9 1265.45 2631.59 1251.49 2625.28 1237.54 2622.13 1220.57 2622.13 1200.59 2622.13 1180.62 2625.28 1163.65 2631.59 1149.7 2637.9 1135.74 2646.19 1124.43 2656.45 1115.76 2666.72 1107.1 2678.24 1100.78 2691 1096.81 2703.76 1092.85 2716.45 1090.86 2729.06 1090.86ZM2113.67 1090.86C2126.57 1090.86 2139.34 1092.85 2151.95 1096.81 2164.57 1100.78 2176.01 1107.1 2186.28 1115.76 2196.54 1124.43 2204.83 1135.74 2211.14 1149.7 2217.45 1163.65 2220.6 1180.62 2220.6 1200.59 2220.6 1220.57 2217.45 1237.54 2211.14 1251.49 2204.83 1265.45 2196.54 1276.76 2186.28 1285.42 2176.01 1294.09 2164.57 1300.19 2151.95 1303.71 2139.34 1307.24 2126.57 1309 2113.67 1309 2101.05 1309 2088.36 1307.24 2075.6 1303.71 2062.84 1300.19 2051.32 1294.09 2041.06 1285.42 2030.79 1276.76 2022.5 1265.45 2016.19 1251.49 2009.88 1237.54 2006.73 1220.57 2006.73 1200.59 2006.73 1180.62 2009.88 1163.65 2016.19 1149.7 2022.5 1135.74 2030.79 1124.43 2041.06 1115.76 2051.32 1107.1 2062.84 1100.78 2075.6 1096.81 2088.36 1092.85 2101.05 1090.86 2113.67 1090.86ZM1722.26 1090.86C1724.9 1090.86 1727.17 1091.01 1729.08 1091.31 1730.99 1091.6 1733.41 1092.33 1736.34 1093.51 1734.87 1097.03 1733.99 1102.4 1733.7 1109.59 1733.41 1116.79 1733.26 1123.33 1733.26 1129.2L1730.18 1131.41C1728.71 1129.64 1725.85 1128.03 1721.6 1126.56 1717.34 1125.09 1713.02 1124.36 1708.62 1124.36 1701.58 1124.36 1695.27 1125.97 1689.69 1129.2 1684.12 1132.44 1679.43 1136.77 1675.61 1142.2 1671.8 1147.64 1668.86 1154.1 1666.81 1161.59 1664.76 1169.08 1663.73 1177.09 1663.73 1185.61L1663.73 1234.08C1663.73 1253.77 1663.8 1268.82 1663.95 1279.25 1664.1 1289.68 1664.61 1298.13 1665.49 1304.59 1659.62 1304.01 1653.76 1303.71 1647.89 1303.71 1641.43 1303.71 1635.27 1304.01 1629.41 1304.59 1630.29 1294.6 1630.8 1281.02 1630.95 1263.83 1631.09 1246.64 1631.17 1225.56 1631.17 1200.59L1631.17 1186.49C1631.17 1175.03 1631.09 1161.81 1630.95 1146.83 1630.8 1131.85 1630.29 1114.66 1629.41 1095.27 1632.63 1095.86 1635.71 1096.37 1638.65 1096.81 1641.58 1097.25 1644.66 1097.47 1647.89 1097.47 1650.53 1097.47 1653.32 1097.25 1656.25 1096.81 1659.18 1096.37 1662.26 1095.86 1665.49 1095.27 1664.32 1105.85 1663.66 1114.22 1663.51 1120.39 1663.36 1126.56 1663.29 1132.44 1663.29 1138.02L1664.17 1138.46C1681.48 1106.73 1700.84 1090.86 1722.26 1090.86ZM1474.2 1090.86C1487.11 1090.86 1499.87 1092.85 1512.49 1096.81 1525.1 1100.78 1536.54 1107.1 1546.81 1115.76 1557.08 1124.43 1565.37 1135.74 1571.67 1149.7 1577.98 1163.65 1581.14 1180.62 1581.14 1200.59 1581.14 1220.57 1577.98 1237.54 1571.67 1251.49 1565.37 1265.45 1557.08 1276.76 1546.81 1285.42 1536.54 1294.09 1525.1 1300.19 1512.49 1303.71 1499.87 1307.24 1487.11 1309 1474.2 1309 1461.59 1309 1448.9 1307.24 1436.14 1303.71 1423.37 1300.19 1411.86 1294.09 1401.59 1285.42 1391.32 1276.76 1383.03 1265.45 1376.73 1251.49 1370.42 1237.54 1367.27 1220.57 1367.27 1200.59 1367.27 1180.62 1370.42 1163.65 1376.73 1149.7 1383.03 1135.74 1391.32 1124.43 1401.59 1115.76 1411.86 1107.1 1423.37 1100.78 1436.14 1096.81 1448.9 1092.85 1461.59 1090.86 1474.2 1090.86ZM1815.08 1036.22 1817.28 1036.22C1816.4 1047.38 1815.74 1058.33 1815.3 1069.05 1814.86 1079.77 1814.35 1090.57 1813.76 1101.44 1816.99 1101.44 1823 1101.37 1831.81 1101.22 1840.61 1101.07 1850.14 1100.71 1860.41 1100.12 1860.12 1101 1859.97 1102.62 1859.97 1104.97L1859.97 1109.37 1859.97 1114.22C1859.97 1116.28 1860.12 1117.75 1860.41 1118.63 1856.6 1118.33 1852.64 1118.11 1848.53 1117.97 1844.42 1117.82 1840.02 1117.75 1835.33 1117.75L1813.76 1117.75C1813.47 1118.92 1813.1 1123.62 1812.66 1131.85 1812.22 1140.07 1811.86 1149.84 1811.56 1161.15 1811.27 1172.46 1811.05 1184.29 1810.9 1196.63 1810.76 1208.97 1810.68 1219.98 1810.68 1229.68 1810.68 1237.9 1810.9 1245.98 1811.34 1253.92 1811.78 1261.85 1813.18 1268.97 1815.52 1275.29 1817.87 1281.6 1821.39 1286.67 1826.09 1290.49 1830.78 1294.31 1837.53 1296.22 1846.33 1296.22 1848.68 1296.22 1851.83 1295.93 1855.79 1295.34 1859.75 1294.75 1863.2 1294.02 1866.13 1293.14L1866.13 1303.71C1861.14 1304.59 1855.64 1305.69 1849.63 1307.02 1843.61 1308.34 1837.82 1309 1832.25 1309 1813.76 1309 1800.12 1304.45 1791.32 1295.34 1782.52 1286.23 1778.12 1272.86 1778.12 1255.24 1778.12 1247.31 1778.27 1238.71 1778.56 1229.46 1778.85 1220.2 1779.22 1210.07 1779.66 1199.05 1780.1 1188.03 1780.47 1175.84 1780.76 1162.47 1781.05 1149.11 1781.2 1134.2 1781.2 1117.75L1767.12 1117.75C1764.77 1117.75 1762.28 1117.82 1759.64 1117.97 1757 1118.11 1754.21 1118.33 1751.27 1118.63 1751.57 1116.86 1751.79 1115.18 1751.94 1113.56 1752.08 1111.94 1752.15 1110.25 1752.15 1108.49 1752.15 1107.02 1752.08 1105.55 1751.94 1104.08 1751.79 1102.62 1751.57 1101.15 1751.27 1099.68 1764.48 1100.56 1774.16 1101 1780.32 1101 1780.03 1095.12 1779.81 1087.78 1779.66 1078.97 1779.51 1070.15 1779.15 1061.05 1778.56 1051.64ZM1207.61 1018.15 1207.61 1149.03C1217.58 1151.38 1228 1152.56 1238.85 1152.56 1247.94 1152.56 1257.33 1151.53 1267.01 1149.47 1276.7 1147.42 1285.57 1143.67 1293.64 1138.24 1301.71 1132.8 1308.31 1125.31 1313.44 1115.76 1318.57 1106.21 1321.14 1093.95 1321.14 1078.97 1321.14 1066.33 1319.38 1056.05 1315.86 1048.12 1312.34 1040.19 1307.43 1034.02 1301.12 1029.61 1294.81 1025.2 1287.11 1022.19 1278.02 1020.58 1268.92 1018.96 1258.65 1018.15 1247.21 1018.15ZM1168 1001.85C1175.04 1002.44 1182.16 1002.95 1189.34 1003.39 1196.53 1003.83 1203.65 1004.05 1210.69 1004.05 1214.21 1004.05 1218.46 1003.9 1223.45 1003.61 1228.44 1003.32 1233.5 1003.1 1238.63 1002.95 1243.76 1002.8 1248.68 1002.58 1253.37 1002.29 1258.07 1001.99 1262.03 1001.85 1265.25 1001.85 1269.65 1001.85 1275.08 1001.99 1281.54 1002.29 1287.99 1002.58 1294.81 1003.46 1302 1004.93 1309.19 1006.4 1316.3 1008.6 1323.34 1011.54 1330.38 1014.48 1336.76 1018.74 1342.48 1024.32 1348.21 1029.9 1352.83 1036.88 1356.35 1045.25 1359.87 1053.63 1361.63 1063.98 1361.63 1076.32 1361.63 1095.71 1357.45 1111.43 1349.09 1123.47 1340.72 1135.52 1330.46 1144.92 1318.28 1151.68 1306.11 1158.44 1293.2 1162.99 1279.56 1165.34 1265.91 1167.69 1253.81 1168.86 1243.25 1168.86 1236.5 1168.86 1230.34 1168.79 1224.77 1168.64 1219.19 1168.5 1213.47 1168.13 1207.61 1167.54L1207.61 1191.78C1207.61 1211.17 1207.97 1230.27 1208.71 1249.07 1209.44 1267.87 1210.25 1286.38 1211.13 1304.59 1204.38 1304.01 1197.19 1303.71 1189.56 1303.71 1181.94 1303.71 1174.75 1304.01 1168 1304.59 1168.88 1286.38 1169.69 1267.87 1170.42 1249.07 1171.15 1230.27 1171.52 1211.17 1171.52 1191.78L1171.52 1115.98C1171.52 1096.59 1171.15 1077.57 1170.42 1058.92 1169.69 1040.26 1168.88 1021.24 1168 1001.85ZM2544.13 996.119C2550.29 996.119 2555.57 998.322 2559.97 1002.73 2564.37 1007.14 2566.57 1012.42 2566.57 1018.59 2566.57 1024.76 2564.37 1030.05 2559.97 1034.46 2555.57 1038.86 2550.29 1041.07 2544.13 1041.07 2537.97 1041.07 2532.69 1038.86 2528.29 1034.46 2523.89 1030.05 2521.69 1024.76 2521.69 1018.59 2521.69 1012.42 2523.89 1007.14 2528.29 1002.73 2532.69 998.322 2537.97 996.119 2544.13 996.119ZM2276.79 972.322C2285.01 973.791 2291.61 974.526 2296.59 974.526 2301.58 974.526 2308.18 973.791 2316.4 972.322 2315.81 979.667 2315.3 988.554 2314.86 998.983 2314.42 1009.41 2314.05 1020.36 2313.76 1031.81 2313.46 1043.27 2313.24 1054.88 2313.1 1066.63 2312.95 1078.38 2312.88 1089.25 2312.88 1099.24L2312.88 1179C2312.88 1188.99 2312.95 1199.86 2313.1 1211.61 2313.24 1223.36 2313.46 1234.97 2313.76 1246.42 2314.05 1257.88 2314.42 1268.75 2314.86 1279.03 2315.3 1289.32 2315.81 1297.84 2316.4 1304.59 2309.65 1304.01 2303.05 1303.71 2296.59 1303.71 2290.14 1303.71 2283.54 1304.01 2276.79 1304.59 2277.38 1297.84 2277.89 1289.32 2278.33 1279.03 2278.77 1268.75 2279.14 1257.88 2279.43 1246.42 2279.72 1234.97 2279.95 1223.36 2280.09 1211.61 2280.24 1199.86 2280.31 1188.99 2280.31 1179L2280.31 1099.24C2280.31 1089.25 2280.24 1078.38 2280.09 1066.63 2279.95 1054.88 2279.72 1043.27 2279.43 1031.81 2279.14 1020.36 2278.77 1009.41 2278.33 998.983 2277.89 988.554 2277.38 979.667 2276.79 972.322ZM1989.9 971C1993.13 971 1996.06 971.441 1998.7 972.322 1998.41 978.198 1998.04 984.074 1997.6 989.949 1997.16 995.825 1996.94 1001.7 1996.94 1007.58L1994.3 1008.9C1987.26 1004.49 1979.19 1002.29 1970.1 1002.29 1963.64 1002.29 1958.14 1003.54 1953.59 1006.03 1949.05 1008.53 1945.31 1011.76 1942.37 1015.73 1939.44 1019.7 1937.31 1024.32 1935.99 1029.61 1934.67 1034.9 1934.01 1040.48 1934.01 1046.36 1934.01 1051.64 1934.52 1059.28 1935.55 1069.27 1936.58 1079.26 1937.82 1088.81 1939.29 1097.92 1946.92 1097.92 1954.47 1097.84 1961.95 1097.69 1969.44 1097.55 1976.99 1097.47 1984.62 1097.47 1984.32 1098.94 1984.1 1100.41 1983.96 1101.88 1983.81 1103.35 1983.74 1104.82 1983.74 1106.29 1983.74 1107.76 1983.81 1109.23 1983.96 1110.7 1984.1 1112.16 1984.32 1113.63 1984.62 1115.1 1976.99 1114.81 1969.44 1114.51 1961.95 1114.22 1954.47 1113.93 1946.92 1113.78 1939.29 1113.78 1939.29 1145.8 1939.36 1177.6 1939.51 1209.19 1939.66 1240.77 1940.17 1272.57 1941.05 1304.59 1937.82 1304.01 1934.6 1303.71 1931.37 1303.71 1928.14 1303.71 1925.06 1303.71 1922.13 1303.71 1915.97 1303.71 1909.51 1304.01 1902.77 1304.59 1904.82 1272.57 1905.99 1240.92 1906.29 1209.63 1906.58 1178.34 1906.73 1146.39 1906.73 1113.78 1901.45 1113.78 1896.17 1113.93 1890.88 1114.22 1885.6 1114.51 1880.32 1114.81 1875.04 1115.1 1875.34 1113.63 1875.56 1112.16 1875.7 1110.7 1875.85 1109.23 1875.92 1107.76 1875.92 1106.29 1875.92 1104.82 1875.85 1103.35 1875.7 1101.88 1875.56 1100.41 1875.34 1098.94 1875.04 1097.47 1880.32 1097.47 1885.68 1097.55 1891.1 1097.69 1896.53 1097.84 1901.74 1097.92 1906.73 1097.92 1906.73 1089.4 1907.61 1080.14 1909.37 1070.15 1911.13 1060.16 1913.69 1050.32 1917.07 1040.63 1920.44 1030.93 1924.48 1021.75 1929.17 1013.08 1933.86 1004.42 1939.14 997.147 1945.01 991.271 1950.29 985.983 1956.97 981.283 1965.03 977.17 1973.1 973.057 1981.39 971 1989.9 971Z" fill="#000000" fill-rule="evenodd" fill-opacity="1"/><path d="M632.421 1190.81C637.889 1199.92 644.419 1208.73 652.013 1217.24 659.606 1225.74 668.567 1233.33 678.895 1240.02 681.932 1252.17 684.514 1265.08 686.64 1278.74 688.766 1292.41 689.829 1307.45 689.829 1323.85 689.829 1349.37 687.247 1373.36 682.084 1395.84 676.92 1418.32 670.086 1437.91 661.581 1454.61 653.076 1471.32 643.508 1484.38 632.877 1493.8 622.245 1503.21 611.766 1507.92 601.439 1507.92 592.327 1507.92 584.733 1503.67 578.658 1495.16 572.583 1486.66 569.545 1472.38 569.545 1452.34 569.545 1434.11 571.672 1413.61 575.924 1390.83 580.177 1368.05 585.492 1344.66 591.871 1320.66 598.249 1296.66 605.084 1273.28 612.374 1250.5 619.664 1227.71 626.346 1207.82 632.421 1190.81ZM916.719 777.297 927.003 796.244C934.728 814.509 939 834.59 939 855.67L939 1466.33C939 1550.65 870.647 1619 786.33 1619L175.67 1619C122.972 1619 76.5097 1592.3 49.0738 1551.69L41.6918 1538.09 45.685 1530.7 135.898 1282.84C141.973 1266.44 148.504 1248.82 155.489 1229.99 162.476 1211.16 170.069 1192.48 178.271 1173.95 186.472 1155.42 195.281 1137.5 204.697 1120.19 214.113 1102.87 223.985 1087.84 234.312 1075.08 245.247 1061.72 258.156 1048.35 273.04 1034.99 287.923 1021.62 303.262 1009.47 319.057 998.537 334.852 987.602 350.343 978.794 365.531 972.111 380.718 965.429 394.387 962.088 406.537 962.088 423.546 962.088 436.759 967.707 446.175 978.946 455.592 990.184 460.3 1006.13 460.3 1026.79 460.3 1055.95 455.44 1085.11 445.72 1114.27 436 1143.42 423.091 1169.85 406.992 1193.54 390.893 1217.24 372.669 1236.37 352.318 1250.95 331.966 1265.53 310.856 1272.82 288.987 1272.82 276.837 1272.82 265.294 1270.39 254.359 1265.53 243.425 1260.67 234.008 1253.99 226.111 1245.48 221.251 1240.62 217.758 1237.28 215.632 1235.46 213.505 1233.64 210.012 1232.73 205.152 1232.73 200.292 1232.73 196.04 1234.55 192.395 1238.19 188.75 1241.84 186.928 1246.09 186.928 1250.95 186.928 1263.1 197.255 1275.86 217.91 1289.22 228.845 1295.91 241.298 1301.07 255.27 1304.71 269.243 1308.36 286.557 1310.18 307.211 1310.18 349.128 1310.18 387.552 1305.47 422.483 1296.06 457.414 1286.64 488.852 1273.88 516.797 1257.79 530.769 1249.74 543.868 1241.16 556.094 1232.04L577.096 1214.2 559.977 1268.95C552.687 1293.7 546.157 1317.47 540.386 1340.25 528.843 1385.81 523.072 1423.18 523.072 1452.34 523.072 1484.53 529.906 1508.38 543.575 1523.87 557.244 1539.36 575.013 1547.1 596.883 1547.1 614.5 1547.1 631.51 1541.18 647.912 1529.33 664.314 1517.49 678.895 1501.39 691.652 1481.04 704.409 1460.69 714.585 1437 722.178 1409.96 729.772 1382.93 733.569 1354.53 733.569 1324.76 733.569 1305.32 730.228 1283.76 723.545 1260.06 732.658 1261.89 741.466 1262.8 749.971 1262.8 783.991 1262.8 815.58 1252.47 844.74 1231.82 873.9 1211.16 902.148 1180.48 929.486 1139.78 931.916 1134.92 933.13 1130.97 933.13 1127.93 933.13 1116.39 926.752 1110.01 913.994 1108.8 912.172 1108.8 910.349 1109.25 908.527 1110.16 906.705 1111.08 905.186 1112.14 903.971 1113.35 902.148 1115.18 900.63 1117 899.414 1118.82 874.507 1156.49 849.144 1183.97 823.326 1201.29 797.507 1218.6 773.36 1227.26 750.882 1227.26 735.088 1227.26 721.115 1223.31 708.965 1215.41 702.89 1201.44 695.904 1188.38 688.007 1176.23 680.109 1164.08 671.604 1154.36 662.492 1147.07 697.119 1128.84 729.772 1105.3 760.451 1076.45 791.129 1047.59 818.162 1016.61 841.551 983.502 864.939 950.394 883.468 916.374 897.136 881.443 910.805 846.512 917.639 814.163 917.639 784.396ZM852.941 746.124C859.624 746.124 865.091 749.009 869.344 754.78 873.596 760.551 875.722 770.423 875.722 784.396 875.722 807.481 870.255 833.603 859.32 862.762 848.385 891.922 833.501 921.385 814.669 951.153 795.837 980.92 773.511 1009.32 747.693 1036.35 721.875 1063.39 694.082 1086.32 664.314 1105.15 683.754 1057.77 703.953 1010.69 724.912 963.91 745.871 917.133 766.981 872.786 788.243 830.869 797.355 813.252 805.253 798.824 811.936 787.585 818.618 776.346 824.389 767.69 829.249 761.615 834.109 755.54 838.513 751.439 842.462 749.313 846.41 747.187 849.904 746.124 852.941 746.124ZM175.67 703 786.33 703C796.87 703 807.16 704.068 817.099 706.102L836.391 712.091 830.047 714.23C821.769 717.875 813.15 723.343 804.19 730.633 786.269 745.212 767.284 772.246 747.237 811.733 733.265 838.463 718.989 867.167 704.409 897.845 689.829 928.524 675.553 960.113 661.581 992.614 647.608 1025.12 633.94 1058.22 620.575 1091.94L609.198 1123.08 576.027 1166.21C562.055 1182 545.956 1196.58 527.732 1209.95 509.507 1223.31 489.004 1235.31 466.223 1245.94 443.442 1256.57 418.383 1264.62 391.046 1270.09 409.27 1257.33 425.672 1241.54 440.253 1222.7 454.832 1203.87 467.286 1183.82 477.613 1162.56 487.941 1141.3 495.838 1119.12 501.306 1096.04 506.773 1072.96 509.507 1050.48 509.507 1028.61 509.507 995.804 500.394 970.289 482.169 952.064 463.945 933.839 439.037 924.727 407.448 924.727 381.933 924.727 353.988 934.599 323.613 954.342 293.239 974.086 264.079 999.449 236.135 1030.43L249.803 999.449C264.383 973.934 271.673 955.709 271.673 944.774 271.673 931.409 264.383 924.727 249.803 924.727 237.046 924.727 227.326 932.624 220.643 948.419 206.671 981.224 190.421 1021.17 171.892 1068.25 153.363 1115.33 134.227 1164.69 114.484 1216.32 94.7401 1267.96 75.1487 1319.6 55.7089 1371.23 45.989 1397.05 36.8005 1421.73 28.1437 1445.27L23 1459.45 23 855.67C23 771.353 91.3527 703 175.67 703Z" fill="#000000" fill-rule="evenodd" fill-opacity="1"/></g></g></svg>