<svg width="385" height="348" xmlns="http://www.w3.org/2000/svg" xmlns:xlink="http://www.w3.org/1999/xlink" xml:space="preserve" overflow="hidden"><g transform="translate(-627 -105)"><g><path d="M887.399 302.604C884.973 309.383 882.304 317.312 879.392 326.391 876.481 335.469 873.751 344.79 871.204 354.353 868.656 363.916 866.533 373.236 864.835 382.315 863.136 391.394 862.287 399.565 862.287 406.828 862.287 414.817 863.5 420.506 865.926 423.896 868.353 427.285 871.386 428.98 875.025 428.98 879.15 428.98 883.335 427.103 887.581 423.351 891.827 419.598 895.648 414.393 899.045 407.735 902.442 401.078 905.172 393.27 907.234 384.312 909.296 375.355 910.327 365.792 910.327 355.624 910.327 349.087 909.903 343.095 909.054 337.648 908.204 332.201 907.173 327.056 905.96 322.214 901.835 319.551 898.257 316.525 895.224 313.136 892.191 309.746 889.583 306.236 887.399 302.604ZM975.473 125.389C974.26 125.389 972.865 125.813 971.288 126.66 969.711 127.507 967.952 129.141 966.011 131.562 964.07 133.983 961.765 137.433 959.096 141.912 956.427 146.391 953.273 152.141 949.633 159.162 941.141 175.866 932.71 193.539 924.339 212.181 915.969 230.823 907.901 249.585 900.137 268.469 912.026 260.964 923.126 251.824 933.438 241.051 943.75 230.278 952.666 218.96 960.188 207.097 967.709 195.234 973.653 183.492 978.021 171.872 982.388 160.251 984.572 149.841 984.572 140.641 984.572 135.073 983.723 131.139 982.024 128.839 980.326 126.539 978.142 125.389 975.473 125.389ZM975.837 110.5C983.601 110.5 989.788 112.981 994.398 117.944 999.008 122.907 1001.31 130.473 1001.31 140.641 1001.31 152.504 998.583 165.395 993.124 179.316 987.665 193.237 980.265 206.794 970.924 219.989 961.583 233.183 950.786 245.53 938.533 257.03 926.28 268.529 913.239 277.911 899.409 285.173 903.049 288.079 906.445 291.952 909.6 296.794 912.754 301.636 915.544 306.841 917.97 312.409 922.823 315.557 928.403 317.13 934.711 317.13 943.689 317.13 953.333 313.68 963.645 306.781 973.957 299.881 984.086 288.926 994.034 273.916 994.519 273.19 995.126 272.463 995.854 271.737 996.339 271.253 996.946 270.829 997.674 270.466 998.401 270.103 999.129 269.921 999.857 269.921 1004.95 270.405 1007.5 272.947 1007.5 277.547 1007.5 278.758 1007.01 280.331 1006.04 282.268 995.126 298.489 983.844 310.715 972.198 318.946 960.551 327.177 947.935 331.293 934.348 331.293 930.951 331.293 927.433 330.93 923.793 330.204 926.462 339.645 927.797 348.24 927.797 355.987 927.797 367.85 926.28 379.168 923.247 389.941 920.214 400.715 916.15 410.156 911.055 418.267 905.96 426.377 900.137 432.793 893.586 437.513 887.035 442.234 880.241 444.595 873.205 444.595 864.471 444.595 857.374 441.508 851.915 435.335 846.455 429.161 843.726 419.659 843.726 406.828 843.726 395.207 846.031 380.318 850.641 362.161 854.098 348.543 858.238 334.039 863.06 318.651L865.056 312.454 863.977 313.431C857.176 319.196 849.59 324.484 841.219 329.296 830.059 335.711 817.503 340.795 803.551 344.548 789.6 348.3 774.254 350.177 757.513 350.177 749.263 350.177 742.348 349.45 736.768 347.998 731.188 346.545 726.214 344.487 721.846 341.824 713.597 336.498 709.472 331.414 709.472 326.572 709.472 324.635 710.2 322.941 711.656 321.488 713.112 320.036 714.81 319.309 716.751 319.309 718.692 319.309 720.087 319.672 720.936 320.399 721.786 321.125 723.181 322.457 725.122 324.393 728.276 327.783 732.037 330.446 736.404 332.382 740.771 334.319 745.381 335.288 750.234 335.288 758.969 335.288 767.4 332.382 775.528 326.572 783.656 320.762 790.935 313.136 797.364 303.694 803.794 294.252 808.95 283.721 812.832 272.1 816.714 260.48 818.655 248.859 818.655 237.238 818.655 229.007 816.775 222.652 813.014 218.173 809.253 213.694 803.976 211.455 797.182 211.455 792.33 211.455 786.871 212.786 780.805 215.449 774.739 218.112 768.552 221.623 762.244 225.981 755.936 230.338 749.809 235.18 743.865 240.506 737.92 245.833 732.765 251.159 728.397 256.485 724.273 261.569 720.33 267.561 716.569 274.461 712.808 281.36 709.29 288.502 706.015 295.886 702.739 303.27 699.706 310.715 696.916 318.22 694.126 325.725 691.518 332.746 689.091 339.282L653.061 438.058C652.091 440.721 650.878 442.961 649.422 444.776 647.966 446.592 645.782 447.5 642.871 447.5 640.93 447.5 639.049 446.774 637.23 445.321 635.41 443.869 634.5 441.932 634.5 439.511 634.5 437.09 635.107 434.185 636.32 430.795 642.385 413.848 649.3 395.086 657.065 374.508 664.829 353.929 672.653 333.351 680.539 312.773 688.424 292.194 696.067 272.524 703.467 253.761 710.867 234.999 717.358 219.081 722.938 206.007 725.607 199.713 729.489 196.566 734.584 196.566 740.407 196.566 743.319 199.229 743.319 204.555 743.319 208.913 740.407 216.175 734.584 226.344L729.125 238.691C740.286 226.344 751.932 216.236 764.064 208.368 776.195 200.5 787.356 196.566 797.546 196.566 810.163 196.566 820.111 200.197 827.39 207.46 834.669 214.723 838.308 224.891 838.308 237.964 838.308 246.68 837.216 255.638 835.032 264.837 832.849 274.037 829.695 282.874 825.57 291.347 821.445 299.82 816.471 307.81 810.648 315.315 804.825 322.82 798.274 329.114 790.995 334.198 801.914 332.019 811.922 328.812 821.021 324.575 830.119 320.338 838.308 315.557 845.587 310.231 852.866 304.904 859.295 299.094 864.876 292.8 867.666 289.652 870.274 286.505 872.701 283.358L877.592 276.499 882.668 263.203C888.006 249.767 893.465 236.572 899.045 223.62 904.626 210.668 910.327 198.079 916.15 185.853 921.974 173.627 927.675 162.188 933.256 151.535 941.262 135.799 948.845 125.026 956.002 119.215 963.16 113.405 969.771 110.5 975.837 110.5Z" stroke="#AEAEAE" stroke-width="6.875" stroke-linecap="butt" stroke-linejoin="miter" stroke-miterlimit="8" stroke-opacity="1" fill="#FFFFFF" fill-rule="evenodd" fill-opacity="1"/></g></g></svg>